<mxfile host="app.diagrams.net" modified="2023-09-30T09:19:20.717Z" agent="Mozilla/5.0 (Macintosh; Intel Mac OS X 10_15_7) AppleWebKit/537.36 (KHTML, like Gecko) Chrome/115.0.0.0 Safari/537.36" version="22.0.0" etag="QEyq5D0N0Be59M45uHem" type="github">
  <diagram name="페이지-1" id="Ux0oHTBsRV8mPEvSezeh">
    <mxGraphModel>
      <root>
        <mxCell id="0" />
        <mxCell id="1" parent="0" />
      </root>
    </mxGraphModel>
  </diagram>
</mxfile>
